{
  "accessors": [
    {
      "bufferView": 2,
      "componentType": 5126,
      "count": 621,
      "max": [
        26.70722007751465,
        18.571205139160156,
        25.631366729736328
      ],
      "min": [
        -26.8637752532959,
        -18.532800674438477,
        -0.3277626037597656
      ],
      "type": "VEC3"
    },
    {
      "bufferView": 2,
      "byteOffset": 7452,
      "componentType": 5126,
      "count": 621,
      "max": [
        0.9996698498725891,
        0.996458113193512,
        0.9945445656776428
      ],
      "min": [
        -0.9841867089271545,
        -0.9956773519515991,
        -0.976799726486206
      ],
      "type": "VEC3"
    },
    {
      "bufferView": 3,
      "componentType": 5126,
      "count": 621,
      "max": [
        0.9994820356369019,
        0.9998935461044312,
        0.9969050288200378,
        1.0
      ],
      "min": [
        -0.9992405772209167,
        -0.9999765753746033,
        -0.9924984574317932,
        -1.0
      ],
      "type": "VEC4"
    },
    {
      "bufferView": 1,
      "componentType": 5126,
      "count": 621,
      "max": [
        0.9991333484649658,
        0.9980546236038208
      ],
      "min": [
        0.00146465131547302,
        0.0015514810802415013
      ],
      "type": "VEC2"
    },
    {
      "bufferView": 1,
      "byteOffset": 4968,
      "componentType": 5126,
      "count": 621,
      "max": [
        0.9991333484649658,
        0.9980546236038208
      ],
      "min": [
        0.00146465131547302,
        0.0015514810802415013
      ],
      "type": "VEC2"
    },
    {
      "bufferView": 1,
      "byteOffset": 9936,
      "componentType": 5126,
      "count": 621,
      "max": [
        0.9991333484649658,
        0.9980546236038208
      ],
      "min": [
        0.00146465131547302,
        0.0015514810802415013
      ],
      "type": "VEC2"
    },
    {
      "bufferView": 1,
      "byteOffset": 14904,
      "componentType": 5126,
      "count": 621,
      "max": [
        0.9991333484649658,
        0.9980546236038208
      ],
      "min": [
        0.00146465131547302,
        0.0015514810802415013
      ],
      "type": "VEC2"
    },
    {
      "bufferView": 1,
      "byteOffset": 19872,
      "componentType": 5126,
      "count": 621,
      "max": [
        0.9991333484649658,
        0.9980546236038208
      ],
      "min": [
        0.00146465131547302,
        0.0015514810802415013
      ],
      "type": "VEC2"
    },
    {
      "bufferView": 1,
      "byteOffset": 24840,
      "componentType": 5126,
      "count": 621,
      "max": [
        0.9991333484649658,
        0.9980546236038208
      ],
      "min": [
        0.00146465131547302,
        0.0015514810802415013
      ],
      "type": "VEC2"
    },
    {
      "bufferView": 1,
      "byteOffset": 29808,
      "componentType": 5126,
      "count": 621,
      "max": [
        0.9991333484649658,
        0.9980546236038208
      ],
      "min": [
        0.00146465131547302,
        0.0015514810802415013
      ],
      "type": "VEC2"
    },
    {
      "bufferView": 1,
      "byteOffset": 34776,
      "componentType": 5126,
      "count": 621,
      "max": [
        0.9991333484649658,
        0.9980546236038208
      ],
      "min": [
        0.00146465131547302,
        0.0015514810802415013
      ],
      "type": "VEC2"
    },
    {
      "bufferView": 1,
      "byteOffset": 39744,
      "componentType": 5126,
      "count": 621,
      "max": [
        0.9991333484649658,
        0.9980546236038208
      ],
      "min": [
        0.00146465131547302,
        0.0015514810802415013
      ],
      "type": "VEC2"
    },
    {
      "bufferView": 1,
      "byteOffset": 44712,
      "componentType": 5126,
      "count": 621,
      "max": [
        0.9991333484649658,
        0.9980546236038208
      ],
      "min": [
        0.00146465131547302,
        0.0015514810802415013
      ],
      "type": "VEC2"
    },
    {
      "bufferView": 0,
      "componentType": 5125,
      "count": 1686,
      "type": "SCALAR"
    }
  ],
  "asset": {
    "extras": {
      "author": "Thunder (https://sketchfab.com/thunderpwn)",
      "license": "CC-BY-SA-4.0 (http://creativecommons.org/licenses/by-sa/4.0/)",
      "source": "https://sketchfab.com/3d-models/pot-d97ed83921aa4e17a6bd89cba8a47d20",
      "title": "Pot"
    },
    "generator": "Sketchfab-12.66.0",
    "version": "2.0"
  },
  "bufferViews": [
    {
      "buffer": 0,
      "byteLength": 6744,
      "name": "floatBufferViews",
      "target": 34963
    },
    {
      "buffer": 0,
      "byteLength": 49680,
      "byteOffset": 6744,
      "byteStride": 8,
      "name": "floatBufferViews",
      "target": 34962
    },
    {
      "buffer": 0,
      "byteLength": 14904,
      "byteOffset": 56424,
      "byteStride": 12,
      "name": "floatBufferViews",
      "target": 34962
    },
    {
      "buffer": 0,
      "byteLength": 9936,
      "byteOffset": 71328,
      "byteStride": 16,
      "name": "floatBufferViews",
      "target": 34962
    }
  ],
  "buffers": [
    {
      "byteLength": 81264,
      "uri": "scene.bin"
    }
  ],
  "images": [
    {
      "uri": "textures/DefaultMaterial_baseColor.png"
    },
    {
      "uri": "textures/DefaultMaterial_metallicRoughness.png"
    },
    {
      "uri": "textures/DefaultMaterial_normal.png"
    }
  ],
  "materials": [
    {
      "doubleSided": true,
      "name": "DefaultMaterial",
      "normalTexture": {
        "index": 2
      },
      "pbrMetallicRoughness": {
        "baseColorTexture": {
          "index": 0
        },
        "metallicRoughnessTexture": {
          "index": 1
        }
      }
    }
  ],
  "meshes": [
    {
      "name": "Torus_DefaultMaterial_0",
      "primitives": [
        {
          "attributes": {
            "NORMAL": 1,
            "POSITION": 0,
            "TANGENT": 2,
            "TEXCOORD_0": 3,
            "TEXCOORD_1": 4,
            "TEXCOORD_2": 5,
            "TEXCOORD_3": 6,
            "TEXCOORD_4": 7,
            "TEXCOORD_5": 8,
            "TEXCOORD_6": 9,
            "TEXCOORD_7": 10,
            "TEXCOORD_8": 11,
            "TEXCOORD_9": 12
          },
          "indices": 13,
          "material": 0,
          "mode": 4
        }
      ]
    }
  ],
  "nodes": [
    {
      "children": [
        1
      ],
      "matrix": [
        1.0,
        0.0,
        0.0,
        0.0,
        0.0,
        2.220446049250313e-16,
        -1.0,
        0.0,
        0.0,
        1.0,
        2.220446049250313e-16,
        0.0,
        0.0,
        0.0,
        0.0,
        1.0
      ],
      "name": "Sketchfab_model"
    },
    {
      "children": [
        2
      ],
      "matrix": [
        1.0,
        0.0,
        0.0,
        0.0,
        0.0,
        0.0,
        1.0,
        0.0,
        0.0,
        -1.0,
        0.0,
        0.0,
        0.0,
        0.0,
        0.0,
        1.0
      ],
      "name": "Pot.fbx"
    },
    {
      "children": [
        3
      ],
      "name": "RootNode"
    },
    {
      "children": [
        4
      ],
      "matrix": [
        1.0,
        0.0,
        0.0,
        0.0,
        0.0,
        -1.331580541386046e-07,
        -0.9999999999999911,
        0.0,
        0.0,
        0.9999999999999911,
        -1.331580541386046e-07,
        0.0,
        0.0,
        0.0,
        0.0,
        1.0
      ],
      "name": "Torus"
    },
    {
      "mesh": 0,
      "name": "Torus_DefaultMaterial_0"
    }
  ],
  "samplers": [
    {
      "magFilter": 9729,
      "minFilter": 9987,
      "wrapS": 10497,
      "wrapT": 10497
    }
  ],
  "scene": 0,
  "scenes": [
    {
      "name": "Sketchfab_Scene",
      "nodes": [
        0
      ]
    }
  ],
  "textures": [
    {
      "sampler": 0,
      "source": 0
    },
    {
      "sampler": 0,
      "source": 1
    },
    {
      "sampler": 0,
      "source": 2
    }
  ]
}
